# xmcd CD database file
#
# Track frame offsets:
#	175
#	16302
#	36482
#	51440
#	67335
#	81685
#	93765
#
# Disc length: 1457 seconds
#
# Revision: 0
# Processed by: cddbd v1.4PL0 Copyright (c) Steve Scherf et al.
# Submitted via: NeoAudio 1.5.7
#
DISCID=6305af07
DTITLE=Phil Gosez - Acoustic Songs
DYEAR=1900
DGENRE=Blues
TTITLE0=Howlin Waters
TTITLE1=Sweet Virginia
TTITLE2=Route Capital
TTITLE3=Long Black Veil
TTITLE4=After Midnight
TTITLE5=Bottle and Neck
TTITLE6=Blood TV
EXTD=
EXTT0=
EXTT1=
EXTT2=
EXTT3=
EXTT4=
EXTT5=
EXTT6=
PLAYORDER=
